<svg xmlns="http://www.w3.org/2000/svg" xmlns:xlink="http://www.w3.org/1999/xlink"> 
    
    <symbol id="instagram" viewBox="0 0 511 511.9" >
		<g>
		    <path d="m510.949219 150.5c-1.199219-27.199219-5.597657-45.898438-11.898438-62.101562-6.5-17.199219-16.5-32.597657-29.601562-45.398438-12.800781-13-28.300781-23.101562-45.300781-29.5-16.296876-6.300781-34.898438-10.699219-62.097657-11.898438-27.402343-1.300781-36.101562-1.601562-105.601562-1.601562s-78.199219.300781-105.5 1.5c-27.199219 1.199219-45.898438 5.601562-62.097657 11.898438-17.203124 6.5-32.601562 16.5-45.402343 29.601562-13 12.800781-23.097657 28.300781-29.5 45.300781-6.300781 16.300781-10.699219 34.898438-11.898438 62.097657-1.300781 27.402343-1.601562 36.101562-1.601562 105.601562s.300781 78.199219 1.5 105.5c1.199219 27.199219 5.601562 45.898438 11.902343 62.101562 6.5 17.199219 16.597657 32.597657 29.597657 45.398438 12.800781 13 28.300781 23.101562 45.300781 29.5 16.300781 6.300781 34.898438 10.699219 62.101562 11.898438 27.296876 1.203124 36 1.5 105.5 1.5s78.199219-.296876 105.5-1.5c27.199219-1.199219 45.898438-5.597657 62.097657-11.898438 34.402343-13.300781 61.601562-40.5 74.902343-74.898438 6.296876-16.300781 10.699219-34.902343 11.898438-62.101562 1.199219-27.300781 1.5-36 1.5-105.5s-.101562-78.199219-1.300781-105.5zm-46.097657 209c-1.101562 25-5.300781 38.5-8.800781 47.5-8.601562 22.300781-26.300781 40-48.601562 48.601562-9 3.5-22.597657 7.699219-47.5 8.796876-27 1.203124-35.097657 1.5-103.398438 1.5s-76.5-.296876-103.402343-1.5c-25-1.097657-38.5-5.296876-47.5-8.796876-11.097657-4.101562-21.199219-10.601562-29.398438-19.101562-8.5-8.300781-15-18.300781-19.101562-29.398438-3.5-9-7.699219-22.601562-8.796876-47.5-1.203124-27-1.5-35.101562-1.5-103.402343s.296876-76.5 1.5-103.398438c1.097657-25 5.296876-38.5 8.796876-47.5 4.101562-11.101562 10.601562-21.199219 19.203124-29.402343 8.296876-8.5 18.296876-15 29.398438-19.097657 9-3.5 22.601562-7.699219 47.5-8.800781 27-1.199219 35.101562-1.5 103.398438-1.5 68.402343 0 76.5.300781 103.402343 1.5 25 1.101562 38.5 5.300781 47.5 8.800781 11.097657 4.097657 21.199219 10.597657 29.398438 19.097657 8.5 8.300781 15 18.300781 19.101562 29.402343 3.5 9 7.699219 22.597657 8.800781 47.5 1.199219 27 1.5 35.097657 1.5 103.398438s-.300781 76.300781-1.5 103.300781zm0 0"/>
            <path d="m256.449219 124.5c-72.597657 0-131.5 58.898438-131.5 131.5s58.902343 131.5 131.5 131.5c72.601562 0 131.5-58.898438 131.5-131.5s-58.898438-131.5-131.5-131.5zm0 216.800781c-47.097657 0-85.300781-38.199219-85.300781-85.300781s38.203124-85.300781 85.300781-85.300781c47.101562 0 85.300781 38.199219 85.300781 85.300781s-38.199219 85.300781-85.300781 85.300781zm0 0"/>
            <path d="m423.851562 119.300781c0 16.953125-13.746093 30.699219-30.703124 30.699219-16.953126 0-30.699219-13.746094-30.699219-30.699219 0-16.957031 13.746093-30.699219 30.699219-30.699219 16.957031 0 30.703124 13.742188 30.703124 30.699219zm0 0"/>
		</g>
	</symbol>

	<symbol id="telegram" viewBox="0 -39 512.00011 512" >
		<g>
            <path d="m504.09375 11.859375c-6.253906-7.648437-15.621094-11.859375-26.378906-11.859375-5.847656 0-12.042969 1.230469-18.410156 3.664062l-433.398438 165.441407c-23 8.777343-26.097656 21.949219-25.8984375 29.019531s4.0390625 20.046875 27.4999995 27.511719c.140626.042969.28125.085937.421876.125l89.898437 25.726562 48.617187 139.023438c6.628907 18.953125 21.507813 30.726562 38.835938 30.726562 10.925781 0 21.671875-4.578125 31.078125-13.234375l55.605469-51.199218 80.652344 64.941406c.007812.007812.019531.011718.027343.019531l.765625.617187c.070313.054688.144532.113282.214844.167969 8.964844 6.953125 18.75 10.625 28.308594 10.628907h.003906c18.675781 0 33.546875-13.824219 37.878906-35.214844l71.011719-350.640625c2.851563-14.074219.460937-26.667969-6.734375-35.464844zm-356.191406 234.742187 173.441406-88.605468-107.996094 114.753906c-1.769531 1.878906-3.023437 4.179688-3.640625 6.683594l-20.824219 84.351562zm68.132812 139.332032c-.71875.660156-1.441406 1.25-2.164062 1.792968l19.320312-78.25 35.144532 28.300782zm265.390625-344.566406-71.011719 350.644531c-.683593 3.355469-2.867187 11.164062-8.480468 11.164062-2.773438 0-6.257813-1.511719-9.824219-4.257812l-91.390625-73.585938c-.011719-.011719-.027344-.023437-.042969-.03125l-54.378906-43.789062 156.175781-165.949219c5-5.3125 5.453125-13.449219 1.074219-19.285156-4.382813-5.835938-12.324219-7.671875-18.820313-4.351563l-256.867187 131.226563-91.121094-26.070313 433.265625-165.390625c3.660156-1.398437 6.214844-1.691406 7.710938-1.691406.917968 0 2.550781.109375 3.15625.855469.796875.972656 1.8125 4.289062.554687 10.511719zm0 0"/>
		</g>
	</symbol>

	<symbol id="github" viewBox="0 0 24 24" >
		<g>
            <path d="m12 .5c-6.63 0-12 5.28-12 11.792 0 5.211 3.438 9.63 8.205 11.188.6.111.82-.254.82-.567 0-.28-.01-1.022-.015-2.005-3.338.711-4.042-1.582-4.042-1.582-.546-1.361-1.335-1.725-1.335-1.725-1.087-.731.084-.716.084-.716 1.205.082 1.838 1.215 1.838 1.215 1.07 1.803 2.809 1.282 3.495.981.108-.763.417-1.282.76-1.577-2.665-.295-5.466-1.309-5.466-5.827 0-1.287.465-2.339 1.235-3.164-.135-.298-.54-1.497.105-3.121 0 0 1.005-.316 3.3 1.209.96-.262 1.98-.392 3-.398 1.02.006 2.04.136 3 .398 2.28-1.525 3.285-1.209 3.285-1.209.645 1.624.24 2.823.12 3.121.765.825 1.23 1.877 1.23 3.164 0 4.53-2.805 5.527-5.475 5.817.42.354.81 1.077.81 2.182 0 1.578-.015 2.846-.015 3.229 0 .309.21.678.825.56 4.801-1.548 8.236-5.97 8.236-11.173 0-6.512-5.373-11.792-12-11.792z"/>
        </g>
	</symbol>

	<symbol id="behance" viewBox="0 0 504.4 504.4" >
    
		<g>
            <g>
                <path d="M195.2,184.2H188h-48v44h51.6c9.2,0,17.2-2.4,17.2-23.6C208.8,183.4,195.2,184.2,195.2,184.2z"/>
            </g>
        </g>

        <g>
            <g>
                <path d="M195.2,260.2H140v56h48.4c0.8,0,2,0,3.6,0c8,0,23.2-3.2,23.2-27.2C215.6,260.6,195.2,260.2,195.2,260.2z"/>
            </g>
        </g>

        <g>
            <g>
                <path d="M377.6,0.2H126.4C56.8,0.2,0,57,0,126.6v251.6c0,69.2,56.8,126,126.4,126H378c69.6,0,126.4-56.8,126.4-126.4V126.6
                    C504,57,447.2,0.2,377.6,0.2z M296,160.2h84v20h-84V160.2z M256.8,291.8c0,62.4-61.6,64.4-61.6,64.4h-56.8h-1.6H96v-208h40.4h1.6
                    h56.8c30.8,0,55.2,17.6,55.2,54.4c0,36.8-29.6,38.8-29.6,38.8C259.6,241,256.8,291.8,256.8,291.8z M407.6,288.2H306.4
                    c0,40,34.4,36.8,34.4,36.8c32.4,0,31.2-20.8,31.2-20.8h34.4c0,56-66.8,53.6-66.8,53.6c-80,0-74.8-78.8-74.8-78.8s0-79.2,74.8-79.2
                    C418.4,199.4,407.6,288.2,407.6,288.2z"/>
            </g>
        </g>

        <g>
            <g>
                <path d="M340.4,228.6c-30,0-34.4,31.6-34.4,31.6h64C370,260.2,370.4,228.6,340.4,228.6z"/>
            </g>
        </g>

	</symbol>

	<symbol id="telephone" viewBox="0 0 512.076 512.076" >
		<g>
			<path d="M499.639,396.039l-103.646-69.12c-13.153-8.701-30.784-5.838-40.508,6.579l-30.191,38.818
				c-3.88,5.116-10.933,6.6-16.546,3.482l-5.743-3.166c-19.038-10.377-42.726-23.296-90.453-71.04s-60.672-71.45-71.049-90.453
				l-3.149-5.743c-3.161-5.612-1.705-12.695,3.413-16.606l38.792-30.182c12.412-9.725,15.279-27.351,6.588-40.508l-69.12-103.646
				C109.12,1.056,91.25-2.966,77.461,5.323L34.12,31.358C20.502,39.364,10.511,52.33,6.242,67.539
				c-15.607,56.866-3.866,155.008,140.706,299.597c115.004,114.995,200.619,145.92,259.465,145.92
				c13.543,0.058,27.033-1.704,40.107-5.239c15.212-4.264,28.18-14.256,36.181-27.878l26.061-43.315
				C517.063,422.832,513.043,404.951,499.639,396.039z M494.058,427.868l-26.001,43.341c-5.745,9.832-15.072,17.061-26.027,20.173
				c-52.497,14.413-144.213,2.475-283.008-136.32S8.29,124.559,22.703,72.054c3.116-10.968,10.354-20.307,20.198-26.061
				l43.341-26.001c5.983-3.6,13.739-1.855,17.604,3.959l37.547,56.371l31.514,47.266c3.774,5.707,2.534,13.356-2.85,17.579
				l-38.801,30.182c-11.808,9.029-15.18,25.366-7.91,38.332l3.081,5.598c10.906,20.002,24.465,44.885,73.967,94.379
				c49.502,49.493,74.377,63.053,94.37,73.958l5.606,3.089c12.965,7.269,29.303,3.898,38.332-7.91l30.182-38.801
				c4.224-5.381,11.87-6.62,17.579-2.85l103.637,69.12C495.918,414.126,497.663,421.886,494.058,427.868z"/>
			<path d="M291.161,86.39c80.081,0.089,144.977,64.986,145.067,145.067c0,4.713,3.82,8.533,8.533,8.533s8.533-3.82,8.533-8.533
				c-0.099-89.503-72.63-162.035-162.133-162.133c-4.713,0-8.533,3.82-8.533,8.533S286.448,86.39,291.161,86.39z"/>
			<path d="M291.161,137.59c51.816,0.061,93.806,42.051,93.867,93.867c0,4.713,3.821,8.533,8.533,8.533
				c4.713,0,8.533-3.82,8.533-8.533c-0.071-61.238-49.696-110.863-110.933-110.933c-4.713,0-8.533,3.82-8.533,8.533
				S286.448,137.59,291.161,137.59z"/>
			<path d="M291.161,188.79c23.552,0.028,42.638,19.114,42.667,42.667c0,4.713,3.821,8.533,8.533,8.533s8.533-3.82,8.533-8.533
				c-0.038-32.974-26.759-59.696-59.733-59.733c-4.713,0-8.533,3.82-8.533,8.533S286.448,188.79,291.161,188.79z"/>
		</g>
	</symbol>

	<symbol id="mail" viewBox="0 0 512 512" >
			<g>
		<path d="M485.743,85.333H26.257C11.815,85.333,0,97.148,0,111.589V400.41c0,14.44,11.815,26.257,26.257,26.257h459.487
			c14.44,0,26.257-11.815,26.257-26.257V111.589C512,97.148,500.185,85.333,485.743,85.333z M475.89,105.024L271.104,258.626
			c-3.682,2.802-9.334,4.555-15.105,4.529c-5.77,0.026-11.421-1.727-15.104-4.529L36.109,105.024H475.89z M366.5,268.761
			l111.59,137.847c0.112,0.138,0.249,0.243,0.368,0.368H33.542c0.118-0.131,0.256-0.23,0.368-0.368L145.5,268.761
			c3.419-4.227,2.771-10.424-1.464-13.851c-4.227-3.419-10.424-2.771-13.844,1.457l-110.5,136.501V117.332l209.394,157.046
			c7.871,5.862,17.447,8.442,26.912,8.468c9.452-0.02,19.036-2.6,26.912-8.468l209.394-157.046v275.534L381.807,256.367
			c-3.42-4.227-9.623-4.877-13.844-1.457C363.729,258.329,363.079,264.534,366.5,268.761z"/>
	</g>
	</symbol>


	<symbol id="person" viewBox="0 0 350 350" >
	<g>
		<path d="M175,171.173c38.914,0,70.463-38.318,70.463-85.586C245.463,38.318,235.105,0,175,0s-70.465,38.318-70.465,85.587
		C104.535,132.855,136.084,171.173,175,171.173z"/>
		<path d="M41.909,301.853C41.897,298.971,41.885,301.041,41.909,301.853L41.909,301.853z"/>
		<path d="M308.085,304.104C308.123,303.315,308.098,298.63,308.085,304.104L308.085,304.104z"/>
		<path d="M307.935,298.397c-1.305-82.342-12.059-105.805-94.352-120.657c0,0-11.584,14.761-38.584,14.761
		s-38.586-14.761-38.586-14.761c-81.395,14.69-92.803,37.805-94.303,117.982c-0.123,6.547-0.18,6.891-0.202,6.131
		c0.005,1.424,0.011,4.058,0.011,8.651c0,0,19.592,39.496,133.08,39.496c113.486,0,133.08-39.496,133.08-39.496
		c0-2.951,0.002-5.003,0.005-6.399C308.062,304.575,308.018,303.664,307.935,298.397z"/>
	</g>
	</symbol>

	<symbol id="skills" viewBox="0 0 512 512" >
	<g>
<path d="m277.797 36.714c4.143 0 7.5-3.357 7.5-7.5v-21.714c0-4.143-3.357-7.5-7.5-7.5s-7.5 3.357-7.5 7.5v21.714c0 4.142 3.358 7.5 7.5 7.5z"/>
<path d="m192.078 53.817c1.465 1.467 3.386 2.2 5.307 2.2 1.918 0 3.836-.731 5.3-2.193 2.931-2.928 2.934-7.676.007-10.606l-15.346-15.364c-2.928-2.931-7.677-2.934-10.606-.007-2.931 2.928-2.934 7.676-.007 10.606z"/>
<path d="m358.182 56.018c1.921 0 3.842-.733 5.307-2.2l15.346-15.364c2.927-2.931 2.924-7.679-.007-10.606-2.93-2.927-7.679-2.924-10.606.007l-15.346 15.364c-2.927 2.931-2.924 7.679.007 10.606 1.463 1.461 3.381 2.193 5.299 2.193z"/>
<path d="m395.754 447.767c4.143 0 7.5-3.357 7.5-7.5v-58.698l13.187 13.201c1.465 1.466 3.386 2.199 5.307 2.199 1.918 0 3.836-.731 5.301-2.193 2.93-2.928 2.933-7.677.006-10.607l-25.993-26.022c-.129-.129-.235-.222-.331-.301-1.324-1.177-3.064-1.899-4.976-1.899-1.94 0-3.702.742-5.033 1.951-.06.049-.123.109-.186.169-.029.028-.061.053-.09.082l-26.016 26.018c-2.929 2.929-2.929 7.678.001 10.606 1.464 1.464 3.384 2.196 5.303 2.196s3.839-.732 5.304-2.197l13.217-13.218v58.712c-.001 4.143 3.357 7.501 7.499 7.501z"/>
<path d="m138.505 328.111c-.023 0-.044 0-.066 0-19.048 0-34.565 15.489-34.602 34.557-.036 19.097 15.452 34.662 34.512 34.698h.134c9.182 0 17.819-3.563 24.335-10.042 6.568-6.531 10.195-15.237 10.213-24.514.036-19.097-15.452-34.663-34.526-34.699zm13.737 48.576c-3.685 3.664-8.568 5.679-13.773 5.679-.025 0-.052 0-.076 0-10.803-.021-19.575-8.844-19.555-19.669.021-10.808 8.811-19.586 19.602-19.586h.037c10.803.021 19.575 8.845 19.555 19.67-.011 5.266-2.068 10.204-5.79 13.906z"/>
<path d="m482.509 368.93c-1.47-3.87-5.8-5.83-9.67-4.36-3.88 1.46-5.83 5.79-4.37 9.66 10.81 28.62 3.84 61.07-17.74 82.68-14.69 14.7-34.22 22.8-54.99 22.8s-40.3-8.1-54.99-22.8c-2.22-2.22-4.28-4.55-6.16-6.96-1.34-1.69-2.59-3.43-3.76-5.2-2.02-3.05-3.79-6.22-5.32-9.47-.06-.11-.11-.22-.16-.33-6.51-13.91-8.69-29.36-6.54-44.3.74-5.09 1.97-10.12 3.71-15 1.73-4.86 3.95-9.59 6.68-14.09 3.17-5.26 7.02-10.22 11.55-14.75 5.31-5.32 11.27-9.78 17.69-13.3 11.3-6.21 24.05-9.5 37.3-9.5 20.77 0 40.3 8.09 54.99 22.8 2.93 2.93 7.68 2.93 10.61 0 2.93-2.92 2.93-7.67 0-10.6-8.76-8.77-18.97-15.57-30.08-20.18s-23.13-7.02-35.52-7.02c-7 0-13.89.77-20.56 2.27 1.48-1.8 2.97-3.61 4.47-5.42 22.33-26.96 45.41-54.84 45.35-105.75-.04-40.33-13.63-75.02-39.32-100.32-26.92-26.52-66.26-41.37-107.88-40.83-.81-.01-1.61-.02-2.41-.02-44.66 0-85.37 17.32-111.99 47.74-2.73 3.11-2.41 7.85.7 10.58 3.12 2.73 7.86 2.41 10.59-.7 24.22-27.67 61.8-43.18 103-42.6h.21c37.7-.51 73.15 12.78 97.26 36.52 22.76 22.42 34.81 53.42 34.84 89.64.06 45.5-20.32 70.12-41.9 96.17-6.91 8.34-13.9 16.78-20.19 25.97-6.39 3.86-12.36 8.53-17.77 13.95-11.36 11.38-19.15 24.99-23.38 39.44h-22.85v-139.093h15.576c4.143 0 7.5-3.357 7.5-7.5s-3.357-7.5-7.5-7.5h-47.03c-4.143 0-7.5 3.357-7.5 7.5s3.357 7.5 7.5 7.5h16.454v139.093h-39.64c-1.73-12.06-5.09-22.64-9.5-32.23-.9-1.99-1.86-3.93-2.85-5.83-8.12-15.54-18.88-28.54-29.45-41.3-1.38-1.66-2.75-3.32-4.11-4.98-11.07-13.45-21.48-26.9-28.55-43.46h-.01c-5.71-13.35-9.26-28.72-9.23-47.73.02-20.93 3.98-40.05 11.76-56.83 1.74-3.76.11-8.22-3.65-9.96s-8.22-.11-9.96 3.65c-8.7 18.76-13.13 40-13.15 63.13-.03 18.58 3.03 34.09 8.02 47.61l-14.23-.03c-10.07 0-18.26 8.19-18.26 18.23l-.01 5.39c-3.06 1.12-6.05 2.39-8.96 3.79l-3.87-3.89c-7.11-7.11-18.68-7.13-25.8-.05-.01.01-.01.01-.01.01l-20.21 20.17c-3.45 3.44-5.36 8.02-5.37 12.91-.01 4.88 1.88 9.46 5.31 12.9l4.42 4.43c-1.28 2.76-2.42 5.58-3.42 8.45l-6.35-.02c-10.07 0-18.26 8.18-18.26 18.23l-.06 28.55c-.02 4.87 1.86 9.47 5.32 12.93 3.44 3.47 8.02 5.38 12.87 5.38l6.89.01c.99 2.71 2.1 5.37 3.32 7.98l-4.9 4.9c-3.45 3.43-5.36 8.02-5.36 12.9-.01 4.88 1.88 9.47 5.3 12.9l20.17 20.3c7.11 7.08 18.68 7.09 25.79.02l4.91-4.91c2.59 1.24 5.23 2.35 7.91 3.34v6.88c-.04 10.06 8.11 18.29 18.19 18.34l28.59.05c10.02 0 18.21-8.16 18.26-18.22l.01-6.37c2.85-.99 5.65-2.12 8.4-3.37l4.43 4.45c7.1 7.11 18.68 7.13 25.81.03l4.54-4.53c.73.1 1.49.15 2.25.15h8.56v23.51c0 21.25 17.26 38.54 38.47 38.54h29.08c21.23 0 38.51-17.29 38.51-38.54v-5.28c17.44 17.12 40.45 26.53 64.91 26.53 24.78 0 48.08-9.66 65.6-27.2 25.74-25.77 34.05-64.46 21.17-98.58zm-283.79 24.2v39.31c0 3.26.89 6.32 2.46 8.94l-2.34 2.33c-1.25 1.24-3.37 1.24-4.61 0l-8.21-8.25c-2.32-2.34-5.89-2.88-8.8-1.35-5.1 2.68-10.47 4.83-15.97 6.4-3.22.91-5.45 3.85-5.45 7.19l-.03 11.83c-.01 1.78-1.5 3.28-3.25 3.28l-28.55-.05c-1.76-.01-3.24-1.51-3.24-3.3v-12.3c0-3.31-2.16-6.22-5.32-7.18-5.31-1.61-10.5-3.8-15.4-6.51-1.14-.63-2.38-.93-3.62-.93-1.94 0-3.86.75-5.3 2.19l-8.77 8.75c-1.25 1.24-3.37 1.23-4.59.01l-20.15-20.29c-.82-.81-.94-1.78-.94-2.28.01-.51.13-1.48.97-2.31l8.75-8.76c2.34-2.35 2.87-5.96 1.29-8.87-2.68-4.94-4.85-10.16-6.47-15.52-.95-3.16-3.86-5.33-7.16-5.33l-12.31-.03c-1.13 0-1.9-.6-2.25-.96-.36-.35-.96-1.13-.95-2.3l.06-28.59c0-1.78 1.46-3.24 3.24-3.24l11.83.03h.02c3.35 0 6.3-2.23 7.22-5.46 1.56-5.5 3.72-10.86 6.44-15.93 1.56-2.91 1.04-6.5-1.29-8.84l-8.22-8.25c-.82-.82-.94-1.79-.94-2.29s.13-1.47.96-2.3l20.21-20.18c1.27-1.26 3.34-1.25 4.59.01l7.76 7.79c2.38 2.39 6.05 2.9 8.99 1.25 5.12-2.87 10.63-5.21 16.37-6.96 3.16-.95 5.32-3.86 5.32-7.15l.03-10.79c0-1.79 1.46-3.25 3.25-3.25l20.89.04c8.51 16.36 19.69 29.86 30.68 43.13 17.12 20.69 33.37 40.32 38.18 69.93-8.65 1.04-15.38 8.41-15.38 17.34zm33.55 41.82h-16.06c-1.35 0-2.49-1.15-2.49-2.51v-39.31c0-1.06.7-1.98 1.65-2.33.26-.1.54-.15.84-.15h87.48c-1.79 14.88 0 30.12 5.38 44.3zm83.56 38.51c0 12.98-10.55 23.54-23.51 23.54h-29.08c-12.94 0-23.47-10.56-23.47-23.54v-23.51h76.06z"/>
</g>
	</symbol>

	<symbol id="tools" viewBox="0 0 512 512" >
	<path d="m347.339844 155.148438c-5.519532 0-10 4.46875-10 9.996093 0 5.523438 4.480468 10 10 10 5.53125 0 10-4.476562 10-10 0-5.527343-4.46875-9.996093-10-9.996093zm0 0"/><path d="m165.644531 336.839844c-5.53125 0-10 4.480468-10 10 0 5.53125 4.46875 10 10 10 5.519531 0 10-4.46875 10-10 0-5.519532-4.480469-10-10-10zm0 0"/><path d="m500.058594 61.519531c-3.375-.785156-6.921875.234375-9.359375 2.695313l-41.457031 41.785156h-19.875l-21.878907-22.667969v-20.152343l40.863281-41.472657c2.417969-2.453125 3.402344-5.980469 2.601563-9.335937-.796875-3.351563-3.265625-6.054688-6.53125-7.15625-10.265625-3.460938-21.007813-5.214844-31.933594-5.214844-32.570312 0-62.160156 15.1875-81.183593 41.667969-17.804688 24.789062-23.292969 55.167969-15.429688 84.242187l-73.660156 73.660156-122.71875-123v-24.140624c0-3.511719-1.84375-6.769532-4.855469-8.574219l-70.707031-42.429688c-3.9375-2.363281-8.972656-1.742187-12.214844 1.503907l-28.28125 28.277343c-3.242188 3.246094-3.863281 8.28125-1.503906 12.21875l42.421875 70.707031c1.804687 3.011719 5.058593 4.851563 8.570312 4.855469l24.132813.007813 122.730468 123-73.378906 73.378906c-29.074218-7.859375-59.46875-2.363281-84.269531 15.453125-26.464844 19.011719-41.640625 48.59375-41.640625 81.164063 0 10.921874 1.753906 21.667968 5.214844 31.929687 1.105468 3.285156 3.835937 5.765625 7.210937 6.546875 3.378907.785156 6.921875-.234375 9.363281-2.695312l41.453126-41.78125h19.984374l22.769532 22.769531v19.984375l-41.78125 41.453125c-2.460938 2.441406-3.480469 5.984375-2.695313 9.363281.78125 3.375 3.261719 6.105469 6.546875 7.210938 10.261719 3.460937 21.007813 5.214843 31.929688 5.214843 32.570312 0 62.148437-15.179687 81.164062-41.644531 17.816406-24.800781 23.3125-55.191406 15.453125-84.265625l58.933594-58.933594 13.5 14.664063-6.195313 6.191406c-3.90625 3.90625-3.90625 10.238281 0 14.144531 3.90625 3.902344 10.234376 3.902344 14.144532 0l5.609375-5.609375 126.664062 137.585938c.09375.101562.191407.199218.289063.296875 23.4375 23.4375 61.410156 23.445312 84.859375-.003907 23.382812-23.394531 23.382812-61.460937 0-84.855468-.101563-.101563-.207031-.199219-.3125-.296875l-137.800781-126.421875 5.546874-5.546875c3.90625-3.902344 3.90625-10.234375 0-14.140625s-10.234374-3.90625-14.144531 0l-6.152343 6.15625-14.691407-13.484375 59.21875-59.21875c8.417969 2.25 17.105469 3.390625 25.90625 3.390625 55.140625 0 99.996094-44.859375 99.996094-99.996094 0-10.925781-1.753906-21.667969-5.214844-31.933594-1.105469-3.285156-3.835937-5.765625-7.210937-6.546875zm-411.773438 40.414063c-1.875-1.878906-4.417968-2.835938-7.074218-2.835938l-22.617188-.007812-35.492188-59.257813 17.238282-17.238281 59.15625 35.5v22.617188c0 2.648437 1.050781 5.1875 2.921875 7.0625l125.65625 125.941406-14.144531 14.140625zm254.363282 195.0625 138.269531 126.847656c15.445312 15.609375 15.398437 40.882812-.144531 56.433594-15.578126 15.578125-40.796876 15.625-56.4375.136718l-127.078126-138.035156zm-14.75-13.535156-44.199219 44.191406-13.5-14.664063 43.007812-43.011719zm84.589843-103.464844c-8.746093 0-17.347656-1.402344-25.558593-4.167969-3.597657-1.207031-7.574219-.277344-10.261719 2.40625-50.132813 50.132813-158.15625 158.152344-197.933594 197.933594-2.6875 2.6875-3.621094 6.664062-2.40625 10.265625 8.3125 24.683594 4.335937 51.011718-10.914063 72.242187-15.207031 21.167969-38.871093 33.3125-64.917968 33.3125-2.925782 0-5.835938-.160156-8.71875-.46875l31.761718-31.515625c1.890626-1.875 2.957032-4.429687 2.957032-7.097656v-28.289062c0-2.652344-1.054688-5.195313-2.929688-7.070313l-28.628906-28.628906c-1.875-1.875-4.417969-2.929688-7.070312-2.929688h-28.289063c-2.667969 0-5.222656 1.066407-7.101563 2.957031l-31.511718 31.761719c-.3125-2.882812-.46875-5.792969-.46875-8.71875 0-26.050781 12.140625-49.710937 33.3125-64.917969 21.226562-15.25 47.558594-19.230468 72.246094-10.914062 3.597656 1.214844 7.574218.28125 10.261718-2.40625.550782-.546875 197.792969-197.792969 197.933594-197.933594 2.6875-2.6875 3.617188-6.660156 2.40625-10.261718-8.316406-24.683594-4.347656-51.003907 10.890625-72.21875 15.21875-21.1875 38.886719-33.335938 64.9375-33.335938 3.015625 0 6.011719.167969 8.980469.496094l-31.101563 31.566406c-1.84375 1.871094-2.875 4.390625-2.875 7.015625v28.289063c0 2.59375 1.003907 5.082031 2.804688 6.945312l27.628906 28.628906c1.882813 1.953125 4.480469 3.054688 7.195313 3.054688h28.289062c2.664062 0 5.21875-1.0625 7.097656-2.957032l31.511719-31.757812c.3125 2.882812.46875 5.792969.46875 8.71875 0 44.109375-35.886719 79.996094-79.996094 79.996094zm0 0"/><path d="m311.988281 186.355469-125.136719 125.136719c-3.902343 3.902343-3.902343 10.234374 0 14.140624 3.90625 3.90625 10.238282 3.90625 14.144532 0l125.136718-125.136718c3.90625-3.902344 3.90625-10.234375 0-14.140625s-10.238281-3.90625-14.144531 0zm0 0"/><path d="m438.355469 452c3.90625 3.894531 10.238281 3.894531 14.144531-.023438 3.898438-3.910156 3.886719-10.242187-.023438-14.140624l-90.136718-89.847657c-3.910156-3.898437-10.246094-3.886719-14.140625.023438-3.902344 3.914062-3.890625 10.242187.019531 14.140625zm0 0"/>
	</symbol>

	<symbol id="web" viewBox="0 0 511 511.99968" >
		<g><g><g><path d="m0 31.936h512v448.129h-512z" fill="#fff6cc"/><path d="m470.793 31.936h41.207v448.129h-41.207z" fill="#fff1b5"/><path d="m0 31.936h512v58.892h-512z" fill="#7b7b7f"/><path d="m470.793 31.936h41.207v58.892h-41.207z" fill="#6b6b73"/></g><g fill="#d6cebc"><path d="m234.891 145.256h-177.154c-4.267 0-7.726 3.459-7.726 7.726s3.459 7.726 7.726 7.726h177.153c4.267 0 7.726-3.459 7.726-7.726s-3.458-7.726-7.725-7.726z"/><path d="m181.016 181.312h-123.279c-4.267 0-7.726 3.459-7.726 7.726s3.459 7.726 7.726 7.726h123.279c4.267 0 7.726-3.459 7.726-7.726s-3.459-7.726-7.726-7.726z"/></g><path d="m0 311.863h512v168.201h-512z" fill="#80e1ff"/><path d="m470.793 311.863h41.207v168.201h-41.207z" fill="#59d8ff"/><g><path d="m57.738 232.035h177.153v197.189h-177.153z" fill="#ff7de9"/><path d="m193.684 232.035h41.207v197.189h-41.207z" fill="#ff5ee4"/><path d="m277.109 189.038h177.153v196.521h-177.153z" fill="#fd0"/></g><path d="m454.263 421.497h-105.547c-4.267 0-7.726 3.459-7.726 7.726s3.459 7.726 7.726 7.726h105.546		c4.267 0 7.726-3.459 7.726-7.726.001-4.267-3.458-7.726-7.725-7.726z" fill="#fff"/><path d="m454.263 145.256h-34.34c-4.267 0-7.726 3.459-7.726 7.726s3.459 7.726 7.726 7.726h34.34c4.267 0 7.726-3.459 7.726-7.726s-3.459-7.726-7.726-7.726z" fill="#ff7de9"/><g><g><g><circle cx="365.686" cy="287.299" fill="#ff7de9" r="59.151"/></g></g><g fill="#e330c5"><path d="m340.818 261.666c-9.943 0-9.96 15.453 0 15.453 9.943 0 9.96-15.453 0-15.453z"/><path d="m396.448 287.077c-9.943 0-9.96 15.453 0 15.453 9.943 0 9.96-15.453 0-15.453z"/><path d="m369.663 309.054c-9.943 0-9.96 15.453 0 15.453 9.943 0 9.96-15.453 0-15.453z"/></g></g><g><g><g><circle cx="145.617" cy="332.689" fill="#fd0" r="41.031"/></g></g><path d="m82.776 367.371c-3.07 0-5.974-1.843-7.18-4.869-1.579-3.964.354-8.458 4.318-10.037l127.081-50.634c3.964-1.579 8.458.354 10.037 4.318s-.354 8.458-4.318 10.037l-127.081 50.634c-.937.374-1.905.551-2.857.551z" fill="#fff"/></g></g><g><path d="m35.461 69.108c10.293 0 10.31-15.453 0-15.453-10.294 0-10.311 15.453 0 15.453z" 		fill="#fff"/></g><g><path d="m63.104 69.108c10.293 0 10.31-15.453 0-15.453-10.293 0-10.31 15.453 0 15.453z" fill="#fff"/></g><g><path d="m90.747 69.108c10.293 0 10.31-15.453 0-15.453-10.293 0-10.31 15.453 0 15.453z" fill="#fff"/></g></g>
	</symbol>

	<symbol id="seo" viewBox="0 0 512.002 512.002" >
		
<g><g><g><g><path d="m411.71 143.501v154.56c0 3.46-.33 6.84-.96 10.12-8.72 1.64-16.67 5.44-23.29 10.82-6.67 5.42-11.99 12.44-15.36 20.48-1.47 3.5-2.57 7.2-3.25 11.04-3.39.68-6.89 1.04-10.48 1.04h-189.98l-45.97 54.1c-1.42 1.68-3.5 2.65-5.7 2.65s-4.29-.97-5.72-2.65l-45.97-54.1h-11.68c-29.42 0-53.35-24-53.35-53.5v-154.56c0-29.5 23.93-53.5 53.35-53.5h305.02c29.41 0 53.34 24 53.34 53.5z" fill="#9090fb"/><g fill="#6c5fea"><path d="m338.38 351.561c12.78 0 24.52-4.53 33.72-12.08-1.47 3.5-2.57 7.2-3.25 11.04-3.39.68-6.89 1.04-10.48 1.04z"/><path d="m411.71 143.501v154.56c0 3.46-.33 6.84-.96 10.12-8.72 1.64-16.67 5.44-23.29 10.82 2.74-6.43 4.26-13.51 4.26-20.94v-154.56c0-29.5-23.93-53.5-53.34-53.5h19.99c29.41 0 53.34 24 53.34 53.5z"/></g></g><path d="m253.612 479.661c0 17.83-14.48 32.34-32.277 32.34h-189.058c-17.797 0-32.277-14.51-32.277-32.34s14.48-32.33 32.277-32.33h2.808l16.868-23.3c1.409-1.95 3.667-3.11 6.066-3.11 2.408 0 4.667 1.16 6.076 3.11l16.868 23.3h140.371c17.798 0 32.278 14.5 32.278 32.33z" fill="#ff6b81"/><path d="m512 32.341c0 17.83-14.48 32.33-32.277 32.33h-19.986l-16.868 23.3c-1.409 1.95-3.667 3.11-6.066 3.11-2.408 0-4.667-1.16-6.076-3.11l-16.858-23.3h-123.203c-17.797 0-32.277-14.5-32.277-32.33s14.48-32.34 32.277-32.34h189.057c17.797 0 32.277 14.51 32.277 32.34z" fill="#fbdf63"/><path d="m512 32.341c0 17.83-14.48 32.33-32.277 32.33h-19.986c17.797 0 32.277-14.5 32.277-32.33s-14.48-32.34-32.277-32.34h19.986c17.797 0 32.277 14.51 32.277 32.34z" fill="#ffa402"/><path d="m253.612 479.661c0 17.83-14.48 32.34-32.277 32.34h-19.986c17.797 0 32.277-14.51 32.277-32.34s-14.48-32.33-32.277-32.33h19.986c17.797 0 32.277 14.5 32.277 32.33z" fill="#ed2061"/></g></g><g fill="#fff"><path d="m149.854 188.446c4.142 0 7.5-3.357 7.5-7.5s-3.358-7.5-7.5-7.5h-39.999c-4.142 0-7.5 3.357-7.5 7.5v40c0 4.143 3.358 7.5 7.5 7.5h32.499v25h-32.499c-4.142 0-7.5 3.357-7.5 7.5s3.358 7.5 7.5 7.5h39.999c4.142 0 7.5-3.357 7.5-7.5v-40c0-4.143-3.358-7.5-7.5-7.5h-32.499v-25z"/><path d="m224.853 188.446c4.142 0 7.5-3.357 7.5-7.5s-3.358-7.5-7.5-7.5h-39.999c-4.142 0-7.5 3.357-7.5 7.5v80c0 4.143 3.358 7.5 7.5 7.5h39.999c4.142 0 7.5-3.357 7.5-7.5s-3.358-7.5-7.5-7.5h-32.499v-25h32.499c4.142 0 7.5-3.357 7.5-7.5s-3.358-7.5-7.5-7.5h-32.499v-25z"/><path d="m299.851 173.446h-39.999c-4.142 0-7.5 3.357-7.5 7.5v80c0 4.143 3.358 7.5 7.5 7.5h39.999c4.142 0 7.5-3.357 7.5-7.5v-80c0-4.143-3.358-7.5-7.5-7.5zm-7.5 80h-24.999v-65h24.999z"/></g><g><path d="m511.992 344.749c0-3.68-2.69-6.82-6.33-7.4l-10.35-1.64-4.93-11.919 6.15-8.49c2.16-2.99 1.84-7.1-.77-9.709l-21.18-21.179c-2.61-2.61-6.73-2.93-9.72-.76l-8.47 6.16-11.91-4.93-1.65-10.359c-.58-3.64-3.72-6.32-7.4-6.32h-12.73l-17.22.01c-3.69.01-6.83 2.69-7.41 6.33l-1.64 10.359-11.9 4.94-8.48-6.16c-2.99-2.16-7.1-1.84-9.71.77l-21.17 21.199c-2.61 2.61-2.93 6.72-.76 9.709l6.15 8.48-4.93 11.929-10.34 1.64c-3.64.58-6.32 3.72-6.32 7.41l.01 29.968c0 3.68 2.69 6.82 6.33 7.4l10.35 1.64 4.93 11.919-6.15 8.489c-2.16 2.99-1.84 7.1.77 9.709l21.18 21.179c2.61 2.61 6.73 2.93 9.71.76l8.47-6.16 11.92 4.94 1.65 10.349c.58 3.64 3.72 6.32 7.4 6.32h.01l14.99-.01h14.95c3.69-.01 6.83-2.69 7.41-6.33l1.64-10.359 11.9-4.94 8.48 6.16c2.99 2.16 7.11 1.84 9.71-.77l21.17-21.199c2.61-2.61 2.93-6.72.76-9.709l-6.15-8.479 4.93-11.919 10.34-1.65c3.64-.58 6.32-3.72 6.32-7.41zm-91.51 55.017c-22.09 0-40-17.909-40-39.998s17.91-39.998 40-39.998c22.1 0 40 17.909 40 39.998s-17.9 39.998-40 39.998z" fill="#56788b"/><path d="m512.002 374.717c0 3.69-2.68 6.83-6.32 7.41l-10.34 1.65-4.93 11.919 6.15 8.48c2.17 2.99 1.85 7.1-.76 9.709l-21.17 21.199c-2.6 2.61-6.72 2.93-9.71.77l-8.48-6.16-11.9 4.94-1.64 10.359c-.58 3.64-3.72 6.32-7.41 6.33h-14.95l6.62-31.128 31.96-13.269 8.91 6.47 6.08-6.1-6.46-8.9 13.48-32.608 10.87-1.73-.01-8.629-10.87-1.72-13.5-32.598 6.46-8.91-6.09-6.09-8.9 6.46-33.31-13.789-3.08-30.578h12.73c3.68 0 6.82 2.68 7.4 6.32l1.65 10.359 11.91 4.93 8.47-6.16c2.99-2.17 7.11-1.85 9.72.76l21.18 21.179c2.61 2.61 2.93 6.72.77 9.709l-6.15 8.49 4.93 11.919 10.35 1.64c3.64.58 6.33 3.72 6.33 7.4z" fill="#415e6f"/></g></g>
	</symbol>

	<symbol id="design" viewBox="0 0 480 480" >
	
		<path style="fill:#B3B3B3;" d="M354.416,444.832l-44.968-89.936H170.552l-44.968,89.936H354.416z"/>
<path style="fill:#29ABE2;" d="M56,8h368c22.091,0,40,17.909,40,40v272c0,22.091-17.909,40-40,40H56c-22.091,0-40-17.909-40-40V48
	C16,25.909,33.909,8,56,8z"/>
<g>
	<path style="fill:#E6E6E6;" d="M424,360H56c-22.091,0-40-17.909-40-40v-24h448v24C464,342.091,446.091,360,424,360z"/>
	<path style="fill:#E6E6E6;" d="M80,440h320c8.837,0,16,7.163,16,16l0,0c0,8.837-7.163,16-16,16H80c-8.837,0-16-7.163-16-16l0,0
		C64,447.163,71.163,440,80,440z"/>
</g>
<path style="fill:#FBB03B;" d="M180.584,296l4.184-12.872L216,270.464V240.8l-31.2-12.656l-7.568-23.288l17.824-28.592l-17.44-24
	l-32.736,8.144l-19.816-14.4l-2.36-33.552l-28.216-9.176L72.84,129.056H48.336L26.68,103.28L16,106.752V296H180.584z"/>
<path style="fill:#29ABE2;" d="M114.576,296c22.234-29.871,16.043-72.11-13.828-94.344C75.229,182.661,39.904,184.088,16,205.08V296
	H114.576z"/>
<path d="M216,72h216v16H216V72z"/>
<path d="M216,104h136v16H216V104z"/>
<path d="M216,136h136v16H216V136z"/>
<path d="M280,40h152v16H280V40z"/>
<path d="M248,40h16v16h-16V40z"/>
<path d="M232,320h16v16h-16V320z"/>
<path d="M122.344,85.656l11.312-11.312L123.312,64l10.344-10.344l-11.312-11.312l-16,16c-3.123,3.124-3.123,8.188,0,11.312
	L122.344,85.656z"/>
<path d="M181.656,85.656l16-16c3.123-3.124,3.123-8.188,0-11.312l-16-16l-11.312,11.312L180.688,64l-10.344,10.344L181.656,85.656z"
	/>
<path d="M136.404,85.464l16.016-47.998l15.17,5.062l-16.016,47.998L136.404,85.464z"/>
<path d="M416,184h-16v64h-16v-80h-16v80h-16v-40h-16v40h-16v-48h-16v48h-16v-32h-16v32h-16v16h176v-16h-16V184z"/>
<path d="M8,296v24c0.026,26.499,21.501,47.974,48,48h99.056l-32,64H80c-13.255,0-24,10.745-24,24s10.745,24,24,24h320
	c13.255,0,24-10.745,24-24s-10.745-24-24-24h-43.056l-32-64H424c26.499-0.026,47.974-21.501,48-48V48
	c-0.026-26.499-21.501-47.974-48-48H56C29.501,0.026,8.026,21.501,8,48v157.008v0.072V296z M169.6,207.336l7.576,23.288
	c0.729,2.246,2.412,4.056,4.6,4.944L208,246.2v18.88l-26.24,10.632c-2.193,0.884-3.879,2.699-4.6,4.952l-2.4,7.336h-46.088
	c17.928-37.536,2.032-82.499-35.504-100.427c-22.047-10.53-47.833-9.712-69.168,2.195V112.56l18.184,21.648
	c1.52,1.811,3.764,2.856,6.128,2.856H72.8c2.364,0,4.608-1.045,6.128-2.856L97.12,112.56l17.952,5.832l1.984,28.184
	c0.164,2.357,1.362,4.521,3.272,5.912l19.816,14.4c1.917,1.384,4.345,1.855,6.64,1.288l27.464-6.824l11.104,15.272l-14.968,24
	C169.144,202.636,168.857,205.093,169.6,207.336L169.6,207.336z M24,288v-79.2c25.876-20.187,63.218-15.575,83.404,10.302
	C122.99,239.08,124.193,266.744,110.4,288H24z M408,456c0,4.418-3.582,8-8,8H80c-4.418,0-8-3.582-8-8s3.582-8,8-8h320
	C404.418,448,408,451.582,408,456z M339.056,432H140.944l32-64h134.112L339.056,432z M424,352H56c-17.673,0-32-14.327-32-32v-16
	h90.576h0.072H456v16C456,337.673,441.673,352,424,352z M56,16h368c17.673,0,32,14.327,32,32v240H194.04l24.968-10.12
	c3.016-1.224,4.99-4.153,4.992-7.408V240.8c0.001-3.258-1.973-6.191-4.992-7.416L191.2,222.136l-5.264-16.2l15.856-25.44
	c1.72-2.764,1.593-6.294-0.32-8.928l-17.44-24c-1.915-2.637-5.237-3.849-8.4-3.064l-29.088,7.2L132.8,141.72l-2.104-29.84
	c-0.229-3.253-2.41-6.042-5.512-7.048l-28.2-9.168c-3.103-0.988-6.495-0.013-8.6,2.472l-19.256,22.92H52.064L32.8,98.136
	c-2.106-2.488-5.503-3.464-8.608-2.472L24,95.736V48C24,30.327,38.327,16,56,16L56,16z"/>	

	</symbol>


	<symbol id="portfolio" viewBox="0 0 512 512" >
		<g>
			<g>
				<path d="M488.727,279.273c-6.982,0-11.636,4.655-11.636,11.636v151.273c0,6.982-4.655,11.636-11.636,11.636H46.545
				c-6.982,0-11.636-4.655-11.636-11.636V290.909c0-6.982-4.655-11.636-11.636-11.636s-11.636,4.655-11.636,11.636v151.273
				c0,19.782,15.127,34.909,34.909,34.909h418.909c19.782,0,34.909-15.127,34.909-34.909V290.909
				C500.364,283.927,495.709,279.273,488.727,279.273z"/>
			</g>
		</g>

		<g>
			<g>
				<path d="M477.091,116.364H34.909C15.127,116.364,0,131.491,0,151.273v74.473C0,242.036,11.636,256,26.764,259.491l182.691,40.727
				v37.236c0,6.982,4.655,11.636,11.636,11.636h69.818c6.982,0,11.636-4.655,11.636-11.636v-37.236l182.691-40.727
				C500.364,256,512,242.036,512,225.745v-74.473C512,131.491,496.873,116.364,477.091,116.364z M279.273,325.818h-46.545v-46.545
				h46.545V325.818z M488.727,225.745c0,5.818-3.491,10.473-9.309,11.636l-176.873,39.564v-9.309c0-6.982-4.655-11.636-11.636-11.636
				h-69.818c-6.982,0-11.636,4.655-11.636,11.636v9.309L32.582,237.382c-5.818-1.164-9.309-5.818-9.309-11.636v-74.473
				c0-6.982,4.655-11.636,11.636-11.636h442.182c6.982,0,11.636,4.655,11.636,11.636V225.745z"/>
			</g>
		</g>

		<g>
			<g>
				<path d="M314.182,34.909H197.818c-19.782,0-34.909,15.127-34.909,34.909v11.636c0,6.982,4.655,11.636,11.636,11.636
				s11.636-4.655,11.636-11.636V69.818c0-6.982,4.655-11.636,11.636-11.636h116.364c6.982,0,11.636,4.655,11.636,11.636v11.636
				c0,6.982,4.655,11.636,11.636,11.636c6.982,0,11.636-4.655,11.636-11.636V69.818C349.091,50.036,333.964,34.909,314.182,34.909z"/>
			</g>
		</g>
	</symbol>

	<symbol id="tel" viewBox="0 0 473.806 473.806" >
		<g>
	<g>
		<path d="M374.456,293.506c-9.7-10.1-21.4-15.5-33.8-15.5c-12.3,0-24.1,5.3-34.2,15.4l-31.6,31.5c-2.6-1.4-5.2-2.7-7.7-4
			c-3.6-1.8-7-3.5-9.9-5.3c-29.6-18.8-56.5-43.3-82.3-75c-12.5-15.8-20.9-29.1-27-42.6c8.2-7.5,15.8-15.3,23.2-22.8
			c2.8-2.8,5.6-5.7,8.4-8.5c21-21,21-48.2,0-69.2l-27.3-27.3c-3.1-3.1-6.3-6.3-9.3-9.5c-6-6.2-12.3-12.6-18.8-18.6
			c-9.7-9.6-21.3-14.7-33.5-14.7s-24,5.1-34,14.7c-0.1,0.1-0.1,0.1-0.2,0.2l-34,34.3c-12.8,12.8-20.1,28.4-21.7,46.5
			c-2.4,29.2,6.2,56.4,12.8,74.2c16.2,43.7,40.4,84.2,76.5,127.6c43.8,52.3,96.5,93.6,156.7,122.7c23,10.9,53.7,23.8,88,26
			c2.1,0.1,4.3,0.2,6.3,0.2c23.1,0,42.5-8.3,57.7-24.8c0.1-0.2,0.3-0.3,0.4-0.5c5.2-6.3,11.2-12,17.5-18.1c4.3-4.1,8.7-8.4,13-12.9
			c9.9-10.3,15.1-22.3,15.1-34.6c0-12.4-5.3-24.3-15.4-34.3L374.456,293.506z M410.256,398.806
			C410.156,398.806,410.156,398.906,410.256,398.806c-3.9,4.2-7.9,8-12.2,12.2c-6.5,6.2-13.1,12.7-19.3,20
			c-10.1,10.8-22,15.9-37.6,15.9c-1.5,0-3.1,0-4.6-0.1c-29.7-1.9-57.3-13.5-78-23.4c-56.6-27.4-106.3-66.3-147.6-115.6
			c-34.1-41.1-56.9-79.1-72-119.9c-9.3-24.9-12.7-44.3-11.2-62.6c1-11.7,5.5-21.4,13.8-29.7l34.1-34.1c4.9-4.6,10.1-7.1,15.2-7.1
			c6.3,0,11.4,3.8,14.6,7c0.1,0.1,0.2,0.2,0.3,0.3c6.1,5.7,11.9,11.6,18,17.9c3.1,3.2,6.3,6.4,9.5,9.7l27.3,27.3
			c10.6,10.6,10.6,20.4,0,31c-2.9,2.9-5.7,5.8-8.6,8.6c-8.4,8.6-16.4,16.6-25.1,24.4c-0.2,0.2-0.4,0.3-0.5,0.5
			c-8.6,8.6-7,17-5.2,22.7c0.1,0.3,0.2,0.6,0.3,0.9c7.1,17.2,17.1,33.4,32.3,52.7l0.1,0.1c27.6,34,56.7,60.5,88.8,80.8
			c4.1,2.6,8.3,4.7,12.3,6.7c3.6,1.8,7,3.5,9.9,5.3c0.4,0.2,0.8,0.5,1.2,0.7c3.4,1.7,6.6,2.5,9.9,2.5c8.3,0,13.5-5.2,15.2-6.9
			l34.2-34.2c3.4-3.4,8.8-7.5,15.1-7.5c6.2,0,11.3,3.9,14.4,7.3c0.1,0.1,0.1,0.1,0.2,0.2l55.1,55.1
			C420.456,377.706,420.456,388.206,410.256,398.806z"/>
		<path d="M256.056,112.706c26.2,4.4,50,16.8,69,35.8s31.3,42.8,35.8,69c1.1,6.6,6.8,11.2,13.3,11.2c0.8,0,1.5-0.1,2.3-0.2
			c7.4-1.2,12.3-8.2,11.1-15.6c-5.4-31.7-20.4-60.6-43.3-83.5s-51.8-37.9-83.5-43.3c-7.4-1.2-14.3,3.7-15.6,11
			S248.656,111.506,256.056,112.706z"/>
		<path d="M473.256,209.006c-8.9-52.2-33.5-99.7-71.3-137.5s-85.3-62.4-137.5-71.3c-7.3-1.3-14.2,3.7-15.5,11
			c-1.2,7.4,3.7,14.3,11.1,15.6c46.6,7.9,89.1,30,122.9,63.7c33.8,33.8,55.8,76.3,63.7,122.9c1.1,6.6,6.8,11.2,13.3,11.2
			c0.8,0,1.5-0.1,2.3-0.2C469.556,223.306,474.556,216.306,473.256,209.006z"/>
	</g>
</g>
</symbol>

	<symbol id="mail" viewBox="0 0 512 512" >
		<g>
	<g>
		<polygon points="339.392,258.624 512,367.744 512,144.896 		"/>
	</g>
</g>
<g>
	<g>
		<polygon points="0,144.896 0,367.744 172.608,258.624 		"/>
	</g>
</g>
<g>
	<g>
		<path d="M480,80H32C16.032,80,3.36,91.904,0.96,107.232L256,275.264l255.04-168.032C508.64,91.904,495.968,80,480,80z"/>
	</g>
</g>
<g>
	<g>
		<path d="M310.08,277.952l-45.28,29.824c-2.688,1.76-5.728,2.624-8.8,2.624c-3.072,0-6.112-0.864-8.8-2.624l-45.28-29.856
			L1.024,404.992C3.488,420.192,16.096,432,32,432h448c15.904,0,28.512-11.808,30.976-27.008L310.08,277.952z"/>
	</g>
</g>
	</symbol>

</svg>